<svg xmlns="http://www.w3.org/2000/svg" xmlns:xlink="http://www.w3.org/1999/xlink" width="410.2" height="375.581" viewBox="0 0 410.2 375.581">
  <defs>
    <clipPath id="clip-path">
      <ellipse id="Ellipse_1800" data-name="Ellipse 1800" cx="61.209" cy="61.209" rx="61.209" ry="61.209" transform="translate(0 11.569) rotate(-5.423)" fill="#a2e0e2"/>
    </clipPath>
  </defs>
  <g id="Group_7672" data-name="Group 7672" transform="translate(-76.288 -106)">
    <ellipse id="Ellipse_1790" data-name="Ellipse 1790" cx="156.703" cy="5.364" rx="156.703" ry="5.364" transform="translate(126.353 470.853)" fill="#ededed"/>
    <g id="Group_7655" data-name="Group 7655" transform="translate(141.678 106)">
      <path id="Path_16998" data-name="Path 16998" d="M274.081,272.326l-2.134-1.332-24.5,8.617-.83,2.375c-.153.439-3.692,10.843,2.047,19.53,4.052,6.133,11.348,9.593,21.685,10.283l2.238.149,1.652-1.518c7.628-7.009,11.152-14.275,10.472-21.594C283.748,278.469,274.476,272.572,274.081,272.326Z" transform="translate(-202.771 -165.605)" fill="#ffbf0d"/>
      <path id="Path_16999" data-name="Path 16999" d="M279.5,196.776l5.775,33.031,37.14,9.474L311.388,207.93Z" transform="translate(-215.09 -138.794)" fill="#70a09b"/>
      <path id="Path_17000" data-name="Path 17000" d="M274.247,254.645l-24.474,4.606-21.968,11.731,3.59,17.233,51.571-18.141Z" transform="translate(-196.415 -159.699)" fill="#70a09b"/>
      <path id="Path_17001" data-name="Path 17001" d="M197.847,221.941,179.966,250.6l11.028,31.351,23.03-30.639Z" transform="translate(-179.132 -147.885)" fill="#70a09b"/>
      <path id="Path_17002" data-name="Path 17002" d="M200.492,106.954,197,106l-2.125,2.929c-.981,1.352-23.914,33.466-13.516,63.025,6.2,17.629,25.547,41.47,26.367,42.477l2.324,2.85,46.442-16.336.028-3.678c.01-1.3.169-32-6.032-49.63C240.091,118.078,202.1,107.394,200.492,106.954Z" transform="translate(-178.661 -106)" fill="#a2e0e2"/>
      <g id="Group_7654" data-name="Group 7654" transform="translate(22.117 39.677)">
        <ellipse id="Ellipse_1791" data-name="Ellipse 1791" cx="10.469" cy="10.469" rx="10.469" ry="10.469" transform="matrix(0.567, -0.824, 0.824, 0.567, 1.145, 18.393)" fill="#70a09b"/>
        <path id="Path_17003" data-name="Path 17003" d="M223.78,169.008a15.7,15.7,0,1,0,20.024,9.6A15.721,15.721,0,0,0,223.78,169.008Zm6.948,19.751a5.234,5.234,0,1,1,3.2-6.675A5.24,5.24,0,0,1,230.728,188.759Z" transform="translate(-213.286 -168.117)" fill="#fff"/>
      </g>
    </g>
    <path id="Path_17004" data-name="Path 17004" d="M157.568,533.031a15.95,15.95,0,0,0,0-6.928l.444-.251,2.88-1.631-1.663-2.823-1.663-2.823-1.663-2.823-2.881,1.63-.45.255a14.729,14.729,0,0,0-2.566-2.02,12.157,12.157,0,0,0-3.078-1.448V510h-10.22v4.168a8.139,8.139,0,0,0-3.427,1.448,16.95,16.95,0,0,0-2.857,2.02l-.479-.255-2.894-1.63-1.67,2.823-1.666,2.823-1.665,2.823,2.879,1.631.443.251a15.936,15.936,0,0,0,0,6.928l-.444.251-2.88,1.63,1.663,2.823,1.663,2.824,1.663,2.823,2.881-1.63.45-.255a17.418,17.418,0,0,0,2.914,2.02,8.148,8.148,0,0,0,3.427,1.448v4h10.22v-4a12.182,12.182,0,0,0,3.078-1.448,15.594,15.594,0,0,0,2.683-2.02l.392.255,2.851,1.63,1.648-2.823,1.656-2.824,1.659-2.823-2.882-1.63Zm-16.1,5.773a9.239,9.239,0,1,1,9.423-9.237A9.342,9.342,0,0,1,141.47,538.8Z" transform="translate(-16.531 -145.948)" fill="#ffbf0d"/>
    <path id="Path_17005" data-name="Path 17005" d="M651.312,569.847l-5.908-6.321a.954.954,0,0,1,.5-1.588,5.743,5.743,0,1,0-6.671-7.135.954.954,0,0,1-1.617.388l-5.908-6.32-6.321,5.908a.953.953,0,0,1-1.587-.5,5.742,5.742,0,1,0-7.135,6.67.954.954,0,0,1,.388,1.617l-6.321,5.908,5.908,6.321a.954.954,0,0,1-.5,1.588,5.743,5.743,0,1,0,6.671,7.135.954.954,0,0,1,1.617-.388l5.908,6.321Z" transform="translate(-193.071 -159.99)" fill="#ffbf0d"/>
    <path id="Path_17006" data-name="Path 17006" d="M477.508,292.489a6.565,6.565,0,0,1,.683,4.267,1.092,1.092,0,0,0,1.484,1.194l9.209-3.657-12.135-30.557-9.208,3.656a1.092,1.092,0,0,0-.262,1.887,6.577,6.577,0,1,1-10.395,4.129,1.092,1.092,0,0,0-1.484-1.194l-9.208,3.656,12.135,30.558,9.209-3.657a1.092,1.092,0,0,0,.261-1.886,6.576,6.576,0,1,1,9.712-8.4Z" transform="translate(-133.63 -56.983)" fill="#a2e0e2"/>
    <g id="Group_7662" data-name="Group 7662" transform="translate(362.26 248.74)">
      <g id="Group_7656" data-name="Group 7656" transform="translate(0 0)">
        <rect id="Rectangle_2252" data-name="Rectangle 2252" width="81.726" height="140.252" rx="13.808" transform="translate(47.288 0) rotate(19.704)" fill="#e4e4e4"/>
      </g>
      <g id="Group_7661" data-name="Group 7661" transform="translate(7.595 13.052)">
        <g id="Group_7658" data-name="Group 7658" transform="translate(0)">
          <g id="Group_7657" data-name="Group 7657">
            <rect id="Rectangle_2253" data-name="Rectangle 2253" width="101.745" height="81.726" transform="translate(0 95.787) rotate(-70.296)" fill="#aaddd9"/>
          </g>
          <path id="Path_17007" data-name="Path 17007" d="M537.394,461.757l76.94,27.555,34.3-95.787" transform="translate(-536.434 -365.662)" fill="#aaddd9"/>
        </g>
        <g id="Group_7660" data-name="Group 7660" transform="translate(0)">
          <g id="Group_7659" data-name="Group 7659">
            <rect id="Rectangle_2254" data-name="Rectangle 2254" width="101.745" height="81.726" transform="translate(0 95.787) rotate(-70.296)" fill="#a2e0e2"/>
          </g>
          <path id="Path_17008" data-name="Path 17008" d="M537.394,461.757l76.94,27.555,34.3-95.787" transform="translate(-536.434 -365.662)" fill="#95d5cf"/>
        </g>
      </g>
      <ellipse id="Ellipse_1792" data-name="Ellipse 1792" cx="7.388" cy="7.388" rx="7.388" ry="7.388" transform="matrix(0.854, -0.52, 0.52, 0.854, 33.414, 132.108)" fill="#fff"/>
    </g>
    <g id="Group_7663" data-name="Group 7663" transform="translate(415.915 192.23)">
      <path id="Path_17009" data-name="Path 17009" d="M608,249.171v28.5c0,5.1,2.451,11.875,7.915,11.875h12.974l23.824,10.333V289.544h8.058c5.475,0,9.188-6.887,9.188-11.875v-28.5c0-5.063-3.557-8.171-9.188-8.171H615.915C610.452,241,608,244.027,608,249.171Z" transform="translate(-608 -241)" fill="#ffbf0d"/>
      <circle id="Ellipse_1793" data-name="Ellipse 1793" cx="4.172" cy="4.172" r="4.172" transform="translate(38.903 19.05)" fill="#fff"/>
      <circle id="Ellipse_1794" data-name="Ellipse 1794" cx="4.172" cy="4.172" r="4.172" transform="translate(26.386 19.05)" fill="#fff"/>
      <circle id="Ellipse_1795" data-name="Ellipse 1795" cx="4.172" cy="4.172" r="4.172" transform="translate(13.69 19.05)" fill="#fff"/>
    </g>
    <g id="Group_7664" data-name="Group 7664" transform="translate(360.983 167.319)">
      <path id="Path_17010" data-name="Path 17010" d="M588.467,202H533.193c-6.94,0-11.193,4.319-11.193,10.558v35.118c0,6.147,4.448,14.366,11.193,14.366h9.885v13l29.4-13h15.986c6.733,0,10.821-8.077,10.821-14.366V212.558C599.288,206.219,595.2,202,588.467,202Z" transform="translate(-522 -202)" fill="#a2e0e2"/>
      <circle id="Ellipse_1796" data-name="Ellipse 1796" cx="5.141" cy="5.141" r="5.141" transform="translate(15.869 29.105) rotate(-45)" fill="#fff"/>
      <circle id="Ellipse_1797" data-name="Ellipse 1797" cx="5.141" cy="5.141" r="5.141" transform="translate(31.293 29.105) rotate(-45)" fill="#fff"/>
      <circle id="Ellipse_1798" data-name="Ellipse 1798" cx="5.141" cy="5.141" r="5.141" transform="translate(48.027 32.933) rotate(-76.764)" fill="#fff"/>
    </g>
    <g id="Group_7666" data-name="Group 7666" transform="translate(97.381 265.729)">
      <ellipse id="Ellipse_1799" data-name="Ellipse 1799" cx="61.209" cy="61.209" rx="61.209" ry="61.209" transform="translate(0 11.569) rotate(-5.423)" fill="#a2e0e2"/>
      <g id="Group_7665" data-name="Group 7665" transform="translate(0 0)" clip-path="url(#clip-path)">
        <path id="Path_17011" data-name="Path 17011" d="M129.05,400.119c-.7,5.065,1.048,7.683,0,10.129s-2.269,6.811-1.222,9.78,2.62,9.43,4.016,9.6-1.048-6.985.349-4.715,1.4,5.648,3.843,7.975,5.763,1.978,8.383,4.248,5.239,5.588,7.683,5.24a18.8,18.8,0,0,1-1.4,4.715c-1.223,2.969-1.4,6.461.174,8.556s3.143,5.24,4.54,6.812,2.446,9.954,2.1,14.146,1.572,13.621,5.938,15.716,0-1.048-.873-3.667.675-8.732,2.783-9.6,4.028-4.366,5.6-6.81,5.588-3.493,6.81-6.461.7-6.462,1.4-8.033,2.619-5.065-1.573-7.161-5.937-1.048-6.111-2.968a5.4,5.4,0,0,0-4.191-4.89c-2.969-.874-5.588-2.569-8.907-2.943s-4.016,2.246-5.762.848a11.658,11.658,0,0,1-3.843-4.54c-.7-1.746-2.794-.7-2.619-1.746s2.969-4.016-.174-2.969-5.938.7-5.763-2.1,4.017-3.842,5.588-4.191,2.794,1.571,4.715,2.794.176-1.746,1.224-3.841,5.064-1.921,5.588-4.89-.174-5.414,2.969-5.763,6.461.174,6.811-1.4-3.668.524-3.843-1.4,3.493-4.541,4.54-2.619,3.668,2.1,4.017,1.4,0-1.921-1.222-4.89-2.445-2.1-3.493-5.413-2.795.174-4.541-1.572-3.841-5.413-4.191-2.27-.349,4.89-1.921,7.335-2.271.524-3.667-1.048-4.541-3.144-3.493-4.541,2.1-5.065,3.668-4.016,4.017,1.047,3.668-.7a3.352,3.352,0,0,1,.7-3.318c.7-.873,3.144-2.445,3.144.7s-.35,4.017,2.1,4.366,5.238.524,5.064-1.047.7-1.223,0-3.842-2.793-2.794-5.064-4.016-3.493-3.143-5.413-2.445-2.1,1.4-2.271,3.318-1.222,2.62-1.921,1.746.174-3.667-2.446-1.921-3.666,4.715-5.063,2.62,2.1-5.763-1.572-4.191-6.287,3.318-4.366,4.016,3.842,1.921,1.921,2.619-5.763-.524-7.16.873S129.05,400.119,129.05,400.119Z" transform="translate(-115.856 -365.62)" fill="#95d5cf"/>
        <path id="Path_17012" data-name="Path 17012" d="M162.178,375.94c-.01,1.953.523,3.493,2.27,1.746s2.794-3.841,4.017-2.968,3.317.641,4.19.583,1.048-2.678,3.493-2.329,1.573-.524,4.191-1.921,8.208-3.842,2.446-3.144-6.113-.872-10.129,1.747a57,57,0,0,1-5.938,3.318c-1.048.7-2.269-2.1-3.668,0S162.187,373.951,162.178,375.94Z" transform="translate(-128.376 -360.301)" fill="#95d5cf"/>
        <path id="Path_17013" data-name="Path 17013" d="M192.957,370.693c-2.064,1.783-5.239,4.366-2.8,4.366s3.633-1.28,4.96.408.8,4.307.8,5.53-.7,4.016,1.048,7.509,1.921,5.763,3.668,3.493,5.938-6.637,8.033-6.985,4.191-1.223,5.239-2.969,0-3.44,1.746-4.689,1.4-2.82,1.92-4.741,5.24-1.921,3.144-2.968-5.936-1.747-10.477-1.223S196.8,367.375,192.957,370.693Z" transform="translate(-138.199 -360.467)" fill="#95d5cf"/>
        <path id="Path_17014" data-name="Path 17014" d="M164.63,456.389c-1.111,1.811-.524,1.921.7,2.271s-.524,2.444.873,2.619,4.54,1.048,5.413,0-1.4-.639-2.969-1.8S165.419,455.1,164.63,456.389Z" transform="translate(-129.082 -392.202)" fill="#95d5cf"/>
        <path id="Path_17015" data-name="Path 17015" d="M294.721,501.072c-1.88.941-1.048,2.445-2.794,3.493s-1.048,1.4-1.571,3.842.174,3.841,1.4,1.921S296.816,500.025,294.721,501.072Z" transform="translate(-174.651 -408.42)" fill="#95d5cf"/>
        <path id="Path_17016" data-name="Path 17016" d="M283.617,431.341c-.523-2.968-4.366-29.862-4.366-29.862s-10.3-6.636-12.049-5.239-4.716,1.185-4.365-.193,2.618-1.03-1.223-3.649-4.541-4.89-7.51-1.572-3.668,6.113-5.414,6.986-3.144,3.667-1.223,4.365,2.1,0,3.668,1.4,3.668,1.048,4.016.175a37.606,37.606,0,0,0,.874-4.715c.174-1.048,1.95-4.54,1.76-1.746s2.43,2.794.685,4.715-.7,3.492-4.192,3.841-3.667-1.746-5.588-.7-1.747,1.746-2.445,2.794-4.366,3.144-4.366,3.144-2.969-1.048-1.572.874,2.62,4.191,1.4,4.365-4.541-1.746-4.541.349-.524,4.366.873,4.891c.987.369,1.628,1.17,2.531,1.058a4.5,4.5,0,0,0-1.832,1.387c-1.359,1.776-.524,4.89-3.318,5.937s-2.794,2.27-3.318,4.541,0,8.033.7,8.557,1.921,4.89,4.89,4.541,6.113-.485,7.16.019,2.8-1.067,3.318,2.95,1.746,4.541,2.445,6.637-.349,6.46,0,9.08,2.794,7.16,2.794,9.43a2.794,2.794,0,0,0,4.016,2.444c1.4-.873,4.366-2.62,5.589-5.413s1.223-4.191,3.143-7.858,1.4-6.286,2.27-9.081,2.975-4.715,5.853-7.859,2.361-4.89,0-4.715-3.934-2.1-5.155-4.889-2.619-9.779-1.57-7.509,3.143,8.557,5.238,9.6,5.938-1.78,6.811-2.811.523-4-1.747-5.222-.873-2.27,1.4-.873S284.141,434.31,283.617,431.341Zm-18.511-7.51c-.175,1.4.523,3.668-3.318,2.794s-3.843-2.969-5.413-1.4-3.493,2.969-5.763.524-1.921-3.143-3.143-3.318c-.871-.125-3.773-.773-6.195-.068a3.792,3.792,0,0,0,.606-.456c1.746-1.571,1.4-2.1,3.318-3.841s3.319-3.318,4.715-1.747,4.366,1.921,3.318,3.668-.349,2.794.874,1.746,2.968-1.746,1.746-3.144-2.446-5.064-.7-2.619,2.27,3.668,3.319,5.064,2.1,2.271,2.444,1.4-.174-2.794.349-3.144,0,2.969,1.573,3.144S265.281,422.435,265.106,423.832Zm4.015-5.938c-1.223-.7-3.492,0-6.285.873s-.56-1.942.7-3.841c1.125-1.7.524.523,2.968.7S270.345,418.593,269.121,417.894Zm6.113,5.414c-.524.524-1.4-2.444-1.921-3.841s-.51-3.825.963-5.176c1.837-1.683.958,2.207.958,4.3S275.758,422.784,275.235,423.308Z" transform="translate(-153.593 -368.027)" fill="#95d5cf"/>
        <path id="Path_17017" data-name="Path 17017" d="M243.789,409.236c-1.072.321-1.921,2.445-1.4,3.492s-.523-.524-1.92.349-3.473,3.318-1.563,3.493,1.563-1.4,3.309-.7,3.668.524,3.668-1.222S245.534,408.711,243.789,409.236Z" transform="translate(-155.85 -375.259)" fill="#95d5cf"/>
        <path id="Path_17018" data-name="Path 17018" d="M228.751,396.6c-1.053.15-1.4,2.794.873,3.143s6.336-.524,4.826-1.921S231.2,396.247,228.751,396.6Z" transform="translate(-152.164 -370.654)" fill="#95d5cf"/>
      </g>
    </g>
    <g id="Group_7668" data-name="Group 7668" transform="translate(181.106 216.375)">
      <g id="Group_7667" data-name="Group 7667">
        <path id="Path_17019" data-name="Path 17019" d="M343.063,495.4,449.371,416.27H240.388Z" transform="translate(-240.388 -328.462)" fill="#ff9600"/>
        <path id="Path_17020" data-name="Path 17020" d="M246.37,542.727S255.09,550,261.09,550h171.9a18.54,18.54,0,0,0,18.541-18.541V416.27Z" transform="translate(-242.549 -328.462)" fill="#ededed"/>
        <path id="Path_17021" data-name="Path 17021" d="M445.549,542.727A18.506,18.506,0,0,1,430.83,550h-171.9a18.541,18.541,0,0,1-18.541-18.541V416.27S432.932,535.791,445.549,542.727Z" transform="translate(-240.388 -328.462)" fill="#e4e4e4"/>
        <path id="Path_17022" data-name="Path 17022" d="M246.37,579.538h0c.2.266.416.526.633.78l.059.068q.307.355.63.693l.066.07c.229.237.464.469.705.693l.013.012a18.617,18.617,0,0,0,2.421,1.9l.123.079q.354.229.72.443.1.057.194.111c.227.13.457.254.69.374l.213.109c.242.121.489.236.736.346.059.026.118.054.178.08a18.454,18.454,0,0,0,1.909.7c.07.021.142.04.213.06.249.073.5.142.752.2.109.027.22.051.33.076q.328.075.66.139c.123.024.247.045.37.066.216.036.434.068.652.1.125.017.249.034.375.048.233.025.468.045.7.063.111.008.22.136.33.142.346.019.694.148,1.044.148h171.9c.351,0,.7-.129,1.044-.148.111-.006.22-.075.33-.084.236-.017.471-.066.7-.092.125-.014.25-.045.375-.062.218-.029.436-.068.651-.1.124-.021.248-.047.37-.07.222-.042.441-.091.66-.141.11-.025.22-.05.33-.077.253-.063.5-.132.752-.205.07-.02.142-.039.212-.061a18.558,18.558,0,0,0,1.909-.7l.178-.081c.248-.11.494-.225.736-.346l.215-.11q.349-.18.689-.373l.194-.112q.365-.214.719-.443l.123-.079a18.615,18.615,0,0,0,2.422-1.9l.013-.012c.241-.224.476-.456.705-.693l.066-.07q.324-.338.63-.693l.058-.068c.218-.254.43-.514.634-.78h0c-6.313-3.47-100.67-61.372-100.67-61.372S252.684,576.067,246.37,579.538Z" transform="translate(-242.549 -365.273)" fill="#d2d2d2"/>
        <path id="Path_17023" data-name="Path 17023" d="M240.388,366.751,335.3,282a15.946,15.946,0,0,1,19.159,0l94.911,84.753Z" transform="translate(-240.388 -278.8)" fill="#ffbf0d"/>
      </g>
      <path id="Path_17024" data-name="Path 17024" d="M357.277,443.386l84.712-52.9V311H274v80.391Z" transform="translate(-252.531 -290.433)" fill="#fff"/>
      <text id="CONTACT_US_" data-name="CONTACT US!" transform="translate(103.116 69.683)" fill="#858585" font-size="20" font-family="Raleway-SemiBold, Raleway" font-weight="600"><tspan x="-65.5" y="0">CONTACT US!</tspan></text>
      <text id="infodocintact_gmail.com" data-name="infodocintact@gmail.com" transform="translate(103.671 84.608)" fill="#d2d2d2" font-size="9" font-family="Raleway-SemiBold, Raleway" font-weight="600" letter-spacing="0.16em"><tspan x="-70.097" y="0">infodocintact@gmail.com</tspan></text>
    </g>
    <g id="Group_7669" data-name="Group 7669" transform="translate(248.851 120.752)">
      <path id="Path_17025" data-name="Path 17025" d="M387.9,153.945l-20.724-24.85-20.723,24.85h8.017v31.937h25.55V153.945Z" transform="translate(-346.449 -129.095)" fill="#ffbf0d"/>
      <path id="Path_17026" data-name="Path 17026" d="M430.077,210.937V179H403.888v31.937h-7.27l20.724,24.85,20.723-24.85Z" transform="translate(-364.573 -147.123)" fill="#ff6b3e"/>
    </g>
    <g id="Group_7670" data-name="Group 7670" transform="translate(306.48 366.579)">
      <ellipse id="Ellipse_1801" data-name="Ellipse 1801" cx="12.223" cy="12.223" rx="12.223" ry="12.223" transform="translate(33.496 85.749) rotate(-74.686)" fill="#70a09b"/>
      <path id="Path_17027" data-name="Path 17027" d="M482.529,516.976a32.045,32.045,0,0,0-24.563-1.078l-.22.081a32.265,32.265,0,0,0-2.69,59.386,18,18,0,0,1,9.214,9.948l1.128,3.118L498.656,576.4l-1.128-3.118a17.742,17.742,0,0,1,.663-13.424,32.264,32.264,0,0,0-15.662-42.881Z" transform="translate(-436.671 -513.957)" fill="#ffbf0d"/>
      <path id="Path_17028" data-name="Path 17028" d="M479.879,618.865l1.888,5.217a7.715,7.715,0,0,0,9.879,4.63l18.749-6.783a7.714,7.714,0,0,0,4.63-9.879l-1.887-5.217Z" transform="translate(-452.281 -547.509)" fill="#a2e0e2"/>
      <path id="Path_17029" data-name="Path 17029" d="M469.855,543.928a8.564,8.564,0,1,1-4.12-11.389A8.563,8.563,0,0,1,469.855,543.928Z" transform="translate(-442.764 -520.376)" fill="#ffdb2d"/>
      <ellipse id="Ellipse_1802" data-name="Ellipse 1802" cx="14.698" cy="14.698" rx="14.698" ry="14.698" transform="matrix(0.033, -0.999, 0.999, 0.033, 5.746, 49.192)" fill="#ffdb2d"/>
      <path id="Path_17030" data-name="Path 17030" d="M466.945,559.014a6.1,6.1,0,1,1-7.077,4.935A6.1,6.1,0,0,1,466.945,559.014Z" transform="translate(-445.017 -530.199)" fill="#fff"/>
    </g>
    <path id="Path_17031" data-name="Path 17031" d="M251.764,588.451a33.27,33.27,0,0,0,4.333-13.489l1-.217,6.517-1.408-1.408-6.517L260.8,560.3l-1.408-6.517-6.517,1.408-1.02.22a39.145,39.145,0,0,0-4.771-5.871,29.087,29.087,0,0,0-6.108-5.072l.314-.979,2.413-7.512-4.968-1.6-6.348-2.039-8.01-2.573-2.414,7.513-.314.978c-1.557.27-4,.523-6.4,1.055a29.875,29.875,0,0,0-6.193,2.349l-.492-.706-4.374-4.907-4.888,4.494-4.914,4.486-4.927,4.482,4.484,4.942.693.763a33.274,33.274,0,0,0-4.331,13.489l-1,.217-6.516,1.408,1.408,6.517,1.408,6.517,1.408,6.517,6.517-1.408,1.02-.22c1.152,2.014,1.684,3.635,3.249,5.383,1.636,1.827,3.478,3.458,4.587,4.584l-.314.978-1.888,5.877,8.01,2.574,6.348,2.039,4.968,1.6,1.888-5.877.314-.978a29.1,29.1,0,0,0,7.919-.566,36.042,36.042,0,0,0,6.953-2.105l.873.828,4.564,4.967,4.983-4.464,4.962-4.47,4.951-4.474-4.472-4.938Zm-34.337,1.37a18.891,18.891,0,1,1,23.764-12.207A18.912,18.912,0,0,1,217.428,589.821Z" transform="translate(-38.476 -153.091)" fill="#ff6b3e"/>
    <path id="Path_17032" data-name="Path 17032" d="M193.4,432.561a14,14,0,0,0-9.693-13.207l-2.042-.649-.1-2.14a18.3,18.3,0,0,0-36.234-2.643l-.415,2.107-2.119.342a15.116,15.116,0,0,0,2.4,30.041h34.36A13.866,13.866,0,0,0,193.4,432.561Z" transform="translate(-19.429 -105.906)" fill="#fff"/>
    <path id="Path_17033" data-name="Path 17033" d="M118.848,363.492a6.756,6.756,0,0,0-5.1-6.265l-1.075-.307-.054-1.016c-.248-4.63-4.474-8.256-9.622-8.256-4.592,0-8.567,2.945-9.452,7l-.218,1-1.115.162c-3.818.554-6.7,3.6-6.7,7.079,0,3.954,3.57,7.171,7.957,7.171h18.088C115.577,370.061,118.848,367.114,118.848,363.492Z" transform="translate(-3.332 -87.297)" fill="#a2e0e2"/>
    <path id="Path_17034" data-name="Path 17034" d="M226.231,330.007a3.536,3.536,0,0,0-2.671-3.279l-.562-.161-.029-.531a4.835,4.835,0,0,0-5.035-4.321,4.947,4.947,0,0,0-4.946,3.664l-.114.523-.584.085a3.928,3.928,0,0,0-3.5,3.7,3.979,3.979,0,0,0,4.165,3.753h9.466A3.646,3.646,0,0,0,226.231,330.007Z" transform="translate(-47.866 -77.929)" fill="#a2e0e2"/>
    <g id="Group_7671" data-name="Group 7671" transform="translate(275.459 325.079)">
      <path id="Path_17035" data-name="Path 17035" d="M398.525,448.985a12.237,12.237,0,0,1,3.813.6,9.4,9.4,0,0,1,3.29,1.854,8.968,8.968,0,0,1,2.3,3.182,11.321,11.321,0,0,1,.859,4.619q0,.377-.04.993a10.626,10.626,0,0,1-.174,1.316,8.231,8.231,0,0,1-.416,1.423,4.809,4.809,0,0,1-.765,1.316,3.639,3.639,0,0,1-1.208.954,3.869,3.869,0,0,1-1.745.363,3.711,3.711,0,0,1-1.263-.188,2.5,2.5,0,0,1-.832-.484,2.025,2.025,0,0,1-.483-.644,2.692,2.692,0,0,1-.215-.644,5.875,5.875,0,0,1-2.094,1.276,7.314,7.314,0,0,1-2.444.416,4.224,4.224,0,0,1-3.115-1.048,3.809,3.809,0,0,1-1.047-2.819,4.035,4.035,0,0,1,.43-1.947,3.612,3.612,0,0,1,1.127-1.276,4.691,4.691,0,0,1,1.6-.7,7.86,7.86,0,0,1,1.839-.215,6.875,6.875,0,0,1,1.692.174,5.526,5.526,0,0,1,1.048.363,3.52,3.52,0,0,0-.135-.994,1.8,1.8,0,0,0-.456-.779,2.123,2.123,0,0,0-.873-.5,4.651,4.651,0,0,0-1.383-.175,6.215,6.215,0,0,0-2,.3,3.761,3.761,0,0,0-1.41.805l-.859-2.6a6.943,6.943,0,0,1,2.229-1.007,10.246,10.246,0,0,1,2.551-.309,6.564,6.564,0,0,1,3.008.564,3.86,3.86,0,0,1,1.584,1.423,4.4,4.4,0,0,1,.6,1.852q.094.995.094,1.88v1.8q0,.589.027,1.181a4.8,4.8,0,0,0,.162,1.074,1.967,1.967,0,0,0,.389.779.921.921,0,0,0,.738.3,1.166,1.166,0,0,0,1.007-.511,3.926,3.926,0,0,0,.563-1.221,7.191,7.191,0,0,0,.255-1.437q.054-.726.054-1.155a9.073,9.073,0,0,0-.591-3.316,7.5,7.5,0,0,0-1.692-2.618,7.753,7.753,0,0,0-2.658-1.719,9.484,9.484,0,0,0-3.518-.618,9.3,9.3,0,0,0-3.477.618,7.241,7.241,0,0,0-4.23,4.283,9.157,9.157,0,0,0-.564,3.263,9.545,9.545,0,0,0,.524,3.183,7.6,7.6,0,0,0,1.531,2.6,7.213,7.213,0,0,0,2.457,1.759,8.122,8.122,0,0,0,3.33.644,7.8,7.8,0,0,0,1.263-.094q.563-.095,1.06-.229a7.947,7.947,0,0,0,.953-.322q.457-.188.967-.376l.537,1.826a11.385,11.385,0,0,1-2.4.805,11.669,11.669,0,0,1-2.457.268,10.072,10.072,0,0,1-3.786-.712,9.271,9.271,0,0,1-3.1-2.027,9.468,9.468,0,0,1-2.1-3.182,10.987,10.987,0,0,1-.765-4.2,10.281,10.281,0,0,1,.859-4.336,9.251,9.251,0,0,1,2.3-3.129,9.587,9.587,0,0,1,3.316-1.893A12.332,12.332,0,0,1,398.525,448.985Zm1.074,13.507a3.476,3.476,0,0,0,.7-.51,1.023,1.023,0,0,0,.349-.779v-1.1a8.5,8.5,0,0,0-1.141-.335,6.544,6.544,0,0,0-1.517-.175,2.363,2.363,0,0,0-1.625.457,1.807,1.807,0,0,0-.5,1.4q0,1.505,1.585,1.5a8.182,8.182,0,0,0,.993-.08A3.267,3.267,0,0,0,399.6,462.492Z" transform="translate(-388.106 -448.985)" fill="#a2e0e2"/>
    </g>
    <path id="Path_17036" data-name="Path 17036" d="M606.433,640.4l-3.749,3.12.445,4.857-4.126-2.6-4.482,1.925,1.2-4.728-3.215-3.668,4.867-.321,2.495-4.191,1.809,4.529Z" transform="translate(-186.488 -191.032)" fill="#ffbf0d"/>
    <path id="Path_17037" data-name="Path 17037" d="M513.3,154.658l-.583,4.843,3.659,3.225-4.785.942-1.937,4.477-2.375-4.26-4.856-.459,3.318-3.575-1.064-4.76,4.425,2.05Z" transform="translate(-153.945 -17.578)" fill="#ffbf0d"/>
    <path id="Path_17038" data-name="Path 17038" d="M144.434,619.6l3.691,3.188,4.719-1.233-1.892,4.5,2.631,4.107-4.86-.41-3.093,3.771-1.112-4.749-4.543-1.776,4.173-2.525Z" transform="translate(-23.007 -185.542)" fill="#ffbf0d"/>
    <path id="Path_17039" data-name="Path 17039" d="M83.818,464.279l1.634,4.6,4.712,1.259L86.3,473.108l.258,4.871-4.023-2.758-4.552,1.751,1.379-4.678-3.072-3.788,4.876-.134Z" transform="translate(0 -129.431)" fill="#ffbf0d"/>
    <path id="Path_17040" data-name="Path 17040" d="M138.858,215.04l3.88,2.956,4.635-1.52-1.613,4.6,2.878,3.938-4.876-.111L140.9,228.86l-1.4-4.672-4.643-1.494,4.01-2.776Z" transform="translate(-21.16 -39.392)" fill="#ffbf0d"/>
    <path id="Path_17041" data-name="Path 17041" d="M134.073,254.715l2.876.577,2.105-2.042.34,2.913,2.593,1.371-2.666,1.224-.5,2.889-1.987-2.157-2.9.414,1.437-2.557Z" transform="translate(-20.822 -53.195)" fill="#ffbf0d"/>
  </g>
</svg>
