<svg xmlns="http://www.w3.org/2000/svg" xmlns:xlink="http://www.w3.org/1999/xlink" width="269" height="104" viewBox="0 0 269 104">
  <defs>
    <linearGradient id="linear-gradient" x1="0.637" y1="0.614" x2="0.213" y2="0.265" gradientUnits="objectBoundingBox">
      <stop offset="0" stop-color="#4ca2d1"/>
      <stop offset="1" stop-color="#6485c8"/>
    </linearGradient>
    <filter id="Path_48888" x="1.144" y="24.156" width="69.02" height="79.844" filterUnits="userSpaceOnUse">
      <feOffset dy="6" input="SourceAlpha"/>
      <feGaussianBlur stdDeviation="3" result="blur"/>
      <feFlood flood-opacity="0.161"/>
      <feComposite operator="in" in2="blur"/>
      <feComposite in="SourceGraphic"/>
    </filter>
    <linearGradient id="linear-gradient-2" x1="0.526" y1="0.7" x2="0.046" y2="1" gradientUnits="objectBoundingBox">
      <stop offset="0" stop-color="#ea5455"/>
      <stop offset="1" stop-color="#feb692"/>
    </linearGradient>
    <filter id="Path_48889" x="25.145" y="7" width="67.662" height="85.75" filterUnits="userSpaceOnUse">
      <feOffset dy="6" input="SourceAlpha"/>
      <feGaussianBlur stdDeviation="3" result="blur-2"/>
      <feFlood flood-opacity="0.161"/>
      <feComposite operator="in" in2="blur-2"/>
      <feComposite in="SourceGraphic"/>
    </filter>
    <filter id="Path_637" x="58.797" y="4.143" width="33.729" height="34.453" filterUnits="userSpaceOnUse">
      <feOffset dy="3" input="SourceAlpha"/>
      <feGaussianBlur stdDeviation="3" result="blur-3"/>
      <feFlood flood-opacity="0.161"/>
      <feComposite operator="in" in2="blur-3"/>
      <feComposite in="SourceGraphic"/>
    </filter>
    <filter id="Path_640" x="0" y="22.215" width="27.658" height="27.389" filterUnits="userSpaceOnUse">
      <feOffset dy="3" input="SourceAlpha"/>
      <feGaussianBlur stdDeviation="3" result="blur-4"/>
      <feFlood flood-opacity="0.161"/>
      <feComposite operator="in" in2="blur-4"/>
      <feComposite in="SourceGraphic"/>
    </filter>
    <linearGradient id="linear-gradient-3" x1="0.578" y1="0.275" x2="0.181" y2="0.854" gradientUnits="objectBoundingBox">
      <stop offset="0" stop-color="#e95354"/>
      <stop offset="1" stop-color="#f7957e"/>
    </linearGradient>
    <filter id="Forma_1" x="67.771" y="33.826" width="21.752" height="24.396" filterUnits="userSpaceOnUse">
      <feOffset dy="2" input="SourceAlpha"/>
      <feGaussianBlur stdDeviation="1.5" result="blur-5"/>
      <feFlood flood-opacity="0.161"/>
      <feComposite operator="in" in2="blur-5"/>
      <feComposite in="SourceGraphic"/>
    </filter>
    <filter id="Forma_1-2" x="67.507" y="62.689" width="21.752" height="24.396" filterUnits="userSpaceOnUse">
      <feOffset dy="2" input="SourceAlpha"/>
      <feGaussianBlur stdDeviation="1.5" result="blur-6"/>
      <feFlood flood-opacity="0.161"/>
      <feComposite operator="in" in2="blur-6"/>
      <feComposite in="SourceGraphic"/>
    </filter>
    <linearGradient id="linear-gradient-5" x1="0.5" x2="0.5" y2="1" gradientUnits="objectBoundingBox">
      <stop offset="0" stop-color="#ea5455"/>
      <stop offset="1" stop-color="#f6927b"/>
    </linearGradient>
    <filter id="Path_48890" x="85.589" y="38.127" width="82.838" height="40.57" filterUnits="userSpaceOnUse">
      <feOffset dy="6" input="SourceAlpha"/>
      <feGaussianBlur stdDeviation="3" result="blur-7"/>
      <feFlood flood-opacity="0.161"/>
      <feComposite operator="in" in2="blur-7"/>
      <feComposite in="SourceGraphic"/>
    </filter>
    <filter id="Path_48891" x="161.427" y="37.996" width="107.573" height="40.736" filterUnits="userSpaceOnUse">
      <feOffset dy="6" input="SourceAlpha"/>
      <feGaussianBlur stdDeviation="3" result="blur-8"/>
      <feFlood flood-opacity="0.161"/>
      <feComposite operator="in" in2="blur-8"/>
      <feComposite in="SourceGraphic"/>
    </filter>
  </defs>
  <g id="Group_15237" data-name="Group 15237" transform="translate(-1976 18636)">
    <rect id="Rectangle_2415" data-name="Rectangle 2415" width="260" height="100" transform="translate(1981 -18636)" fill="none"/>
    <g id="Group_15236" data-name="Group 15236" transform="translate(145.493 119)">
      <g transform="matrix(1, 0, 0, 1, 1830.51, -18755)" filter="url(#Path_48888)">
        <path id="Path_48888-2" data-name="Path 48888" d="M4.946,0H46.073A4.946,4.946,0,0,1,51.02,4.946V56.9a4.946,4.946,0,0,1-4.946,4.946H4.946A4.946,4.946,0,0,1,0,56.9V4.946A4.946,4.946,0,0,1,4.946,0Z" transform="translate(10.14 27.16)" fill="url(#linear-gradient)"/>
      </g>
      <path id="Forma_1-3" data-name="Forma 1" d="M21.309,44.089A4.223,4.223,0,0,1,22.5,41.151l-.653-1.307H12.629V45.5L.037,45.273V39.844c3.084-.027,4.1,0,4.1,0V38.429a1.417,1.417,0,0,1,1.415-1.416H6.967v-2.83h5.661v2.83H23.6L25.04,39.9a4.182,4.182,0,0,1,.515-.052,4.246,4.246,0,1,1-4.246,4.245ZM.029,37.013H0c.026-1.254,0-7.178,0-8.492H.029c0-1.828.009-2.882.009-2.882v2.882H1.549A4.265,4.265,0,0,0,4.137,31.11v3.314a4.265,4.265,0,0,0-2.588,2.588H.037v2.831C.034,38.867.031,37.921.029,37.013ZM24.4,34.182H12.629v-2.83H6.967V28.521H5.552a1.416,1.416,0,0,1-1.415-1.415V25.691l-4.1-.052V20.026l12.592,0v5.661H21.85l.653-1.307a4.726,4.726,0,1,1,2.537,1.255L23.6,28.521H12.629v2.831H24.4a4.245,4.245,0,1,1,0,2.83ZM4.137,17.2v-5.85c0-3.122-.934-5.633-4.056-5.633A40.7,40.7,0,0,0,.081,0C6.324,0,9.8,5.107,9.8,11.349V17.2Z" transform="translate(1840.608 -18719.238)" fill="#fff" opacity="0.14"/>
      <g transform="matrix(1, 0, 0, 1, 1830.51, -18755)" filter="url(#Path_48889)">
        <path id="Path_48889-2" data-name="Path 48889" d="M4.946,0H44.716a4.9,4.9,0,0,1,4.946,4.85V62.9a4.9,4.9,0,0,1-4.946,4.85H4.946A4.9,4.9,0,0,1,0,62.9V4.85A4.9,4.9,0,0,1,4.946,0Z" transform="translate(34.14 10)" fill="url(#linear-gradient-2)"/>
      </g>
      <g transform="matrix(1, 0, 0, 1, 1830.51, -18755)" filter="url(#Path_637)">
        <path id="Path_637-2" data-name="Path 637" d="M2816.177,351l15.587,16.453h-12.724s-2.544.173-2.864-4.5S2816.177,351,2816.177,351Z" transform="translate(-2748.24 -340.86)" fill="#fff"/>
      </g>
      <g transform="matrix(1, 0, 0, 1, 1830.51, -18755)" filter="url(#Path_640)">
        <path id="Path_640-2" data-name="Path 640" d="M.073,0,8.163,8.486h-6.6S.238,8.575.073,6.163.073,0,.073,0Z" transform="translate(10.28 37.6) rotate(-99)" fill="#fff"/>
      </g>
      <path id="Forma_1-4" data-name="Forma 1" d="M44.55,29.677a9.407,9.407,0,0,0-7.442,3.693L18.828,26.345c.018-.24.072-.47.072-.714a9.3,9.3,0,0,0-.134-1.325L37.5,15.665a9.4,9.4,0,1,0-2.4-6.222,9.3,9.3,0,0,0,.134,1.325L16.5,19.408a9.441,9.441,0,1,0,.39,11.972l18.281,7.026c-.018.24-.072.47-.072.714a9.45,9.45,0,1,0,9.45-9.443Z" transform="translate(1864.652 -18721.756)" fill="#fff"/>
      <g id="Group_63" data-name="Group 63" transform="translate(1868.482 -18682.271) rotate(-90)" opacity="0.15">
        <g id="Group_1" data-name="Group 1" transform="translate(1.46 17.352)">
          <path id="Path_1" data-name="Path 1" d="M12.425,11.963h-5a.477.477,0,0,1-.331-.134L.144,5.064A.473.473,0,0,1,0,4.724V.474a.475.475,0,0,1,.95,0V4.524l6.672,6.49h4.8a.475.475,0,1,1,0,.95Z" transform="translate(0 0)" fill="#fff"/>
        </g>
        <g id="Group_2" data-name="Group 2" transform="translate(2.354 7.232)">
          <path id="Path_2" data-name="Path 2" d="M5.088,10.767H5.083a.474.474,0,0,1-.469-.48l.069-6.359L.206.866A.474.474,0,0,1,.742.083L5.429,3.289a.474.474,0,0,1,.207.4L5.564,10.3A.475.475,0,0,1,5.088,10.767Z" transform="translate(0)" fill="#fff"/>
        </g>
        <g id="Group_3" data-name="Group 3" transform="translate(11.245 5.164)">
          <path id="Path_3" data-name="Path 3" d="M11.943,22.048A.468.468,0,0,1,11.6,21.9l-9.029-9.25a.477.477,0,0,1-.135-.324L2.292,2.469.186.851A.474.474,0,0,1,.763.1L3.052,1.856a.477.477,0,0,1,.186.369l.149,9.9,8.9,9.114a.474.474,0,0,1-.339.806Z" transform="translate(0)" fill="#fff"/>
        </g>
        <g id="Group_5" data-name="Group 5" transform="translate(20.799 11.561)">
          <path id="Path_5" data-name="Path 5" d="M16.213,18.4a.478.478,0,0,1-.308-.114L.319,4.992a.473.473,0,0,1-.166-.344L0,.491A.474.474,0,0,1,.457,0,.483.483,0,0,1,.948.457L1.092,4.4,16.374,17.441l3.66-.26.133-2.941a.475.475,0,0,1,.153-.328L24,10.527a.475.475,0,1,1,.643.7l-3.535,3.252-.143,3.168a.475.475,0,0,1-.441.452l-4.276.3Z" transform="translate(0 0)" fill="#fff"/>
        </g>
        <g id="Group_6" data-name="Group 6" transform="translate(28.597 9.328)">
          <path id="Path_6" data-name="Path 6" d="M7.45,11.006H4.362a.473.473,0,0,1-.315-.12L.382,7.637A.473.473,0,0,1,.222,7.3L0,.49A.473.473,0,0,1,.458,0H.474A.473.473,0,0,1,.948.458l.216,6.6,3.378,2.994H7.45a.475.475,0,0,1,0,.95Z" transform="translate(0 0)" fill="#fff"/>
        </g>
        <g id="Group_8" data-name="Group 8" transform="translate(23.426 1.498)">
          <path id="Path_8" data-name="Path 8" d="M25.01,26.492a.475.475,0,0,1-.323-.822l8.7-8.121L33.1,9.208l-2.346-2.9-11.368.754a.476.476,0,0,1-.4-.173L14.238,1.1.469.95A.475.475,0,0,1,0,.469.512.512,0,0,1,.48,0L14.47.152a.479.479,0,0,1,.362.174L19.563,6.1l11.37-.754a.477.477,0,0,1,.4.174l2.6,3.213a.474.474,0,0,1,.105.282l.3,8.715a.474.474,0,0,1-.15.363l-8.856,8.269A.477.477,0,0,1,25.01,26.492Z" transform="translate(0 0)" fill="#fff"/>
        </g>
        <g id="Group_9" data-name="Group 9" transform="translate(38.409 13.246)">
          <path id="Path_9" data-name="Path 9" d="M11.907.949H.474A.474.474,0,0,1,.474,0H11.907a.474.474,0,1,1,0,.949Z" transform="translate(0 0)" fill="#fff"/>
        </g>
        <g id="Group_12" data-name="Group 12" transform="translate(13.411 26.758)">
          <g id="Group_10" data-name="Group 10" transform="translate(0.474 0.475)">
            <path id="Path_10" data-name="Path 10" d="M1.527,3.062A1.531,1.531,0,1,1,3.06,1.536,1.527,1.527,0,0,1,1.527,3.062Z" transform="translate(0 0)" fill="#fff"/>
          </g>
          <g id="Group_11" data-name="Group 11" transform="translate(0 0)">
            <path id="Path_11" data-name="Path 11" d="M2,4.011a2.006,2.006,0,1,1,2.008-2A2,2,0,0,1,2,4.011ZM2,.95A1.057,1.057,0,1,0,3.06,2.011,1.057,1.057,0,0,0,2,.95Z" transform="translate(0 0)" fill="#fff"/>
          </g>
        </g>
        <g id="Group_15" data-name="Group 15" transform="translate(0 14.29)">
          <g id="Group_13" data-name="Group 13" transform="translate(0.474 0.475)">
            <path id="Path_12" data-name="Path 12" d="M1.533,3.061A1.531,1.531,0,1,1,3.06,1.535,1.528,1.528,0,0,1,1.533,3.061Z" transform="translate(0 0)" fill="#fff"/>
          </g>
          <g id="Group_14" data-name="Group 14" transform="translate(0 0)">
            <path id="Path_13" data-name="Path 13" d="M2.007,4.011a2.005,2.005,0,1,1,2-2A2.006,2.006,0,0,1,2.007,4.011Zm0-3.061A1.056,1.056,0,1,0,3.059,2.01,1.06,1.06,0,0,0,2.007.95Z" transform="translate(0 0)" fill="#fff"/>
          </g>
        </g>
        <g id="Group_18" data-name="Group 18" transform="translate(5.263 17.034)">
          <g id="Group_16" data-name="Group 16" transform="translate(0.474 0.474)">
            <path id="Path_14" data-name="Path 14" d="M1.525,3.063A1.531,1.531,0,1,1,3.06,1.528,1.534,1.534,0,0,1,1.525,3.063Z" transform="translate(0 0)" fill="#fff"/>
          </g>
          <g id="Group_17" data-name="Group 17" transform="translate(0 0)">
            <path id="Path_15" data-name="Path 15" d="M2,4.011A2.006,2.006,0,1,1,4.008,2,2.007,2.007,0,0,1,2,4.011ZM2,.95A1.056,1.056,0,1,0,3.059,2,1.052,1.052,0,0,0,2,.95Z" transform="translate(0 0)" fill="#fff"/>
          </g>
        </g>
        <g id="Group_21" data-name="Group 21" transform="translate(0.612 4.185)">
          <g id="Group_19" data-name="Group 19" transform="translate(0.474 0.474)">
            <path id="Path_16" data-name="Path 16" d="M1.525,3.06A1.53,1.53,0,1,1,3.052,1.527,1.528,1.528,0,0,1,1.525,3.06Z" transform="translate(0 0)" fill="#fff"/>
          </g>
          <g id="Group_20" data-name="Group 20" transform="translate(0 0)">
            <path id="Path_17" data-name="Path 17" d="M2,4.01A2,2,0,1,1,4,2,2.007,2.007,0,0,1,2,4.01ZM2,.949A1.056,1.056,0,1,0,3.052,2,1.052,1.052,0,0,0,2,.949Z" transform="translate(0 0)" fill="#fff"/>
          </g>
        </g>
        <g id="Group_33" data-name="Group 33" transform="translate(20.374 0)">
          <g id="Group_31" data-name="Group 31" transform="translate(0.474 0.475)">
            <path id="Path_24" data-name="Path 24" d="M1.528,3.054A1.527,1.527,0,1,1,3.052,1.527,1.528,1.528,0,0,1,1.528,3.054Z" transform="translate(0)" fill="#fff"/>
          </g>
          <g id="Group_32" data-name="Group 32" transform="translate(0 0)">
            <path id="Path_25" data-name="Path 25" d="M2,4A2,2,0,1,1,4,2,2,2,0,0,1,2,4ZM2,.95A1.052,1.052,0,1,0,3.052,2,1.053,1.053,0,0,0,2,.95Z" transform="translate(0)" fill="#fff"/>
          </g>
        </g>
        <g id="Group_36" data-name="Group 36" transform="translate(8.25 2.882)">
          <g id="Group_34" data-name="Group 34" transform="translate(0.474 0.474)">
            <path id="Path_26" data-name="Path 26" d="M1.525,3.061A1.531,1.531,0,1,1,3.052,1.534,1.527,1.527,0,0,1,1.525,3.061Z" transform="translate(0 0)" fill="#fff"/>
          </g>
          <g id="Group_35" data-name="Group 35" transform="translate(0 0)">
            <path id="Path_27" data-name="Path 27" d="M2,4.011a2.005,2.005,0,1,1,2-2A2,2,0,0,1,2,4.011ZM2,.949A1.056,1.056,0,1,0,3.052,2.008,1.056,1.056,0,0,0,2,.949Z" transform="translate(0 0)" fill="#fff"/>
          </g>
        </g>
        <g id="Group_39" data-name="Group 39" transform="translate(19.128 8.507)">
          <g id="Group_37" data-name="Group 37" transform="translate(0.474 0.474)">
            <path id="Path_28" data-name="Path 28" d="M1.535,3.062A1.531,1.531,0,1,1,3.06,1.528,1.536,1.536,0,0,1,1.535,3.062Z" transform="translate(0 0)" fill="#fff"/>
          </g>
          <g id="Group_38" data-name="Group 38" transform="translate(0 0)">
            <path id="Path_29" data-name="Path 29" d="M2.009,4.012A2.006,2.006,0,1,1,4.009,2,2.012,2.012,0,0,1,2.009,4.012Zm0-3.063A1.057,1.057,0,1,0,3.06,2,1.058,1.058,0,0,0,2.009.949Z" transform="translate(0 0)" fill="#fff"/>
          </g>
        </g>
        <g id="Group_42" data-name="Group 42" transform="translate(27.134 6.275)">
          <g id="Group_40" data-name="Group 40" transform="translate(0.474 0.474)">
            <path id="Path_30" data-name="Path 30" d="M1.527,3.06A1.53,1.53,0,1,1,3.052,1.526,1.534,1.534,0,0,1,1.527,3.06Z" transform="translate(0 0)" fill="#fff"/>
          </g>
          <g id="Group_41" data-name="Group 41" transform="translate(0 0)">
            <path id="Path_31" data-name="Path 31" d="M2,4.009A2,2,0,1,1,4,2,2.007,2.007,0,0,1,2,4.009ZM2,.95A1.055,1.055,0,1,0,3.052,2,1.053,1.053,0,0,0,2,.95Z" transform="translate(0 0)" fill="#fff"/>
          </g>
        </g>
        <g id="Group_45" data-name="Group 45" transform="translate(35.35 11.755)">
          <g id="Group_43" data-name="Group 43" transform="translate(0.474 0.474)">
            <path id="Path_32" data-name="Path 32" d="M1.533,3.055A1.528,1.528,0,1,1,3.059,1.527,1.529,1.529,0,0,1,1.533,3.055Z" transform="translate(0 0)" fill="#fff"/>
          </g>
          <g id="Group_44" data-name="Group 44" transform="translate(0 0)">
            <path id="Path_33" data-name="Path 33" d="M2.007,4a2,2,0,1,1,2-2A2.007,2.007,0,0,1,2.007,4Zm0-3.055A1.053,1.053,0,1,0,3.059,2,1.057,1.057,0,0,0,2.007.949Z" transform="translate(0 0)" fill="#fff"/>
          </g>
        </g>
        <g id="Group_48" data-name="Group 48" transform="translate(49.841 11.683)">
          <g id="Group_46" data-name="Group 46" transform="translate(0.474 0.474)">
            <path id="Path_34" data-name="Path 34" d="M1.527,3.056A1.528,1.528,0,1,1,3.052,1.527,1.528,1.528,0,0,1,1.527,3.056Z" transform="translate(0 0)" fill="#fff"/>
          </g>
          <g id="Group_47" data-name="Group 47" transform="translate(0 0)">
            <path id="Path_35" data-name="Path 35" d="M2,4A2,2,0,1,1,4,2,2,2,0,0,1,2,4ZM2,.95A1.053,1.053,0,1,0,3.052,2,1.053,1.053,0,0,0,2,.95Z" transform="translate(0 0)" fill="#fff"/>
          </g>
        </g>
        <g id="Group_51" data-name="Group 51" transform="translate(45.372 26.608)">
          <g id="Group_49" data-name="Group 49" transform="translate(0.474 0.475)">
            <path id="Path_36" data-name="Path 36" d="M1.525,3.06A1.53,1.53,0,1,1,3.052,1.527,1.529,1.529,0,0,1,1.525,3.06Z" transform="translate(0 0)" fill="#fff"/>
          </g>
          <g id="Group_50" data-name="Group 50" transform="translate(0 0)">
            <path id="Path_37" data-name="Path 37" d="M2,4.01A2,2,0,1,1,4,2,2.006,2.006,0,0,1,2,4.01ZM2,.95A1.056,1.056,0,1,0,3.052,2,1.052,1.052,0,0,0,2,.95Z" transform="translate(0 0)" fill="#fff"/>
          </g>
        </g>
        <g id="Group_54" data-name="Group 54" transform="translate(44.363 19.542)">
          <g id="Group_52" data-name="Group 52" transform="translate(0.475 0.474)">
            <path id="Path_38" data-name="Path 38" d="M1.525,3.06A1.53,1.53,0,1,1,3.052,1.526,1.528,1.528,0,0,1,1.525,3.06Z" transform="translate(0 0)" fill="#fff"/>
          </g>
          <g id="Group_53" data-name="Group 53" transform="translate(0 0)">
            <path id="Path_39" data-name="Path 39" d="M2,4.01A2,2,0,1,1,4,2,2.008,2.008,0,0,1,2,4.01ZM2,.949A1.056,1.056,0,1,0,3.052,2,1.052,1.052,0,0,0,2,.949Z" transform="translate(0 0)" fill="#fff"/>
          </g>
        </g>
        <g id="Group_57" data-name="Group 57" transform="translate(35.564 17.957)">
          <g id="Group_55" data-name="Group 55" transform="translate(0.475 0.474)">
            <path id="Path_40" data-name="Path 40" d="M1.534,3.054A1.527,1.527,0,1,1,3.06,1.527,1.53,1.53,0,0,1,1.534,3.054Z" transform="translate(0)" fill="#fff"/>
          </g>
          <g id="Group_56" data-name="Group 56" transform="translate(0 0)">
            <path id="Path_41" data-name="Path 41" d="M2.009,4a2,2,0,1,1,2-2A2.008,2.008,0,0,1,2.009,4Zm0-3.054A1.052,1.052,0,1,0,3.06,2,1.057,1.057,0,0,0,2.009.95Z" transform="translate(0 0)" fill="#fff"/>
          </g>
        </g>
        <g id="Group_60" data-name="Group 60" transform="translate(22.448 25.599)">
          <g id="Group_58" data-name="Group 58" transform="translate(0.474 0.474)">
            <path id="Path_42" data-name="Path 42" d="M1.527,3.06A1.53,1.53,0,1,1,3.06,1.528,1.528,1.528,0,0,1,1.527,3.06Z" transform="translate(0 0)" fill="#fff"/>
          </g>
          <g id="Group_59" data-name="Group 59" transform="translate(0 0)">
            <path id="Path_43" data-name="Path 43" d="M2,4.01A2,2,0,1,1,4.008,2,2.007,2.007,0,0,1,2,4.01ZM2,.949A1.056,1.056,0,1,0,3.059,2,1.053,1.053,0,0,0,2,.949Z" transform="translate(0 0)" fill="#fff"/>
          </g>
        </g>
      </g>
      <g transform="matrix(1, 0, 0, 1, 1830.51, -18755)" filter="url(#Forma_1)">
        <path id="Forma_1-5" data-name="Forma 1" d="M12.776,2.406A8.52,8.52,0,0,1,6.434,0,8.519,8.519,0,0,1,.093,2.406C.093,6.715-.8,12.889,6.434,15.4,13.667,12.889,12.776,6.715,12.776,2.406Z" transform="translate(72.21 36.33)" fill="url(#linear-gradient-3)"/>
      </g>
      <g transform="matrix(1, 0, 0, 1, 1830.51, -18755)" filter="url(#Forma_1-2)">
        <path id="Forma_1-6" data-name="Forma 1" d="M12.776,2.406A8.52,8.52,0,0,1,6.434,0,8.519,8.519,0,0,1,.093,2.406C.093,6.715-.8,12.889,6.434,15.4,13.667,12.889,12.776,6.715,12.776,2.406Z" transform="translate(71.95 65.19)" fill="url(#linear-gradient-3)"/>
      </g>
      <path id="Path_638" data-name="Path 638" d="M354.1,309.591h-.427a2.718,2.718,0,1,0-5.409,0h-.427c-.629,0-.837.234-.837.863v3.985c0,.629.209,1.221.837,1.221H354.1a1.116,1.116,0,0,0,1.018-1.221v-3.985C355.118,309.825,354.729,309.591,354.1,309.591Zm-2.42,4.856h-1.423l.273-1.989a.977.977,0,0,1-.469-.837.932.932,0,0,1,.916-.935.908.908,0,0,1,.916.907,1.031,1.031,0,0,1-.486.879Zm-2.562-4.856c0-1.745.929-2.135,1.85-2.135s1.85.39,1.85,2.135Z" transform="translate(1558.207 -19022.309)" fill="#fff"/>
      <g id="Group_64" data-name="Group 64" transform="translate(1903.612 -18686.746)">
        <path id="Path_2-2" data-name="Path 2" d="M331.428,359.4a3.667,3.667,0,0,0-4.123-5.927l.853.9c.03.031-.071-.084-.078-.042.043-.068.019.058-2.443.465l-.087.087-.07.132a3.8,3.8,0,0,0,.663,4.483,3.835,3.835,0,0,0,.8.606l.026-.026a.137.137,0,0,1,.16-.025c.061.032.123.062.186.091h0l.019.009c.059.026.119.051.179.075h0l.017.007a3.665,3.665,0,0,0,.41.13l.01,0h0q.092.023.187.041h0l.056.01.149.023h0l.068.009c.049.006.1.01.149.014l.064,0h0c.071,0,.142.007.213.007A3.653,3.653,0,0,0,331.428,359.4Z" transform="translate(-323.514 -351.514)" fill="url(#linear-gradient-5)"/>
        <path id="Path_3-2" data-name="Path 3" d="M2.421,9.153a.148.148,0,0,0-.174.027l-.028.028L1.6,9.83l0,0a.148.148,0,0,0,.029.231A5.16,5.16,0,0,0,9.434,5.635h0A5.155,5.155,0,0,0,1.768,1.127L.742.046A.148.148,0,0,0,.488.127L.1,2.868.071,3.1,0,3.6a.148.148,0,0,0,.169.167L.638,3.69l.114-.018L.9,3.648l2.556-.406a.147.147,0,0,0,.092-.055.261.261,0,0,1,.03-.067.147.147,0,0,0-.038-.126L2.616,2.02A3.977,3.977,0,1,1,4.274,9.611c-.077,0-.153,0-.231-.007h0L3.974,9.6c-.054,0-.108-.009-.162-.015l-.074-.009h0c-.055-.008-.108-.016-.162-.025l-.06-.011h0q-.1-.02-.2-.044h0l-.011,0a3.971,3.971,0,0,1-.444-.141l-.019-.007h0c-.065-.025-.13-.053-.194-.081l-.021-.009h0Q2.52,9.205,2.421,9.153Z" transform="matrix(0.07, 0.998, -0.998, 0.07, 10.768, 0)" fill="#fff"/>
        <path id="Path_4" data-name="Path 4" d="M513.71,427.56a.4.4,0,0,0-.307.129.251.251,0,0,0-.041.07.211.211,0,0,0-.015.075v2.473a.244.244,0,0,0,.1.19l2.642,2.094c.139.109.257,0,.4-.106a.23.23,0,0,0,.009-.388l-2.427-1.9v-2.362C514.075,427.683,513.911,427.56,513.71,427.56Z" transform="translate(-509.447 -425.798)" fill="#fff"/>
      </g>
      <g transform="matrix(1, 0, 0, 1, 1830.51, -18755)" filter="url(#Path_48890)">
        <path id="Path_48890-2" data-name="Path 48890" d="M7.224,4.344a11.362,11.362,0,0,0,7.523-2.861,11.383,11.383,0,0,0,3.7-7.105,11.557,11.557,0,0,0-.45-4.823,11.078,11.078,0,0,0-2.283-4.019,10.69,10.69,0,0,0-3.762-2.765,12.212,12.212,0,0,0-4.823-1H2.466a1.64,1.64,0,0,0-1.608,1.64V2.736A1.634,1.634,0,0,0,2.466,4.344ZM4.073,1.129v-16.14H7.127a8.275,8.275,0,0,1,6.205,2.669,7.99,7.99,0,0,1,1.9,6.366A8.063,8.063,0,0,1,7.224,1.129ZM31.4,4.28A11.211,11.211,0,0,0,42.526-7.037,11.148,11.148,0,0,0,31.4-18.162,11.148,11.148,0,0,0,20.277-7.037,11.211,11.211,0,0,0,31.4,4.28Zm0-19.323a8.055,8.055,0,0,1,8.038,8.006,8.117,8.117,0,0,1-8.038,8.2,8.091,8.091,0,0,1-8.006-8.2A8.027,8.027,0,0,1,31.4-15.043ZM55.8,4.312A11.106,11.106,0,0,0,65.224-.9a1.417,1.417,0,0,0-.579-2.122,1.4,1.4,0,0,0-2.122.386A8.035,8.035,0,0,1,55.8,1.032a7.98,7.98,0,0,1-8.07-7.909,8.11,8.11,0,0,1,8.07-8.038A8.02,8.02,0,0,1,62.716-10.9a1.56,1.56,0,0,0,2.122.579,1.569,1.569,0,0,0,.579-2.315A10.869,10.869,0,0,0,55.8-18.194,11.34,11.34,0,0,0,44.455-6.877,11.335,11.335,0,0,0,55.8,4.312Z" transform="translate(93.73 59.35)" fill="#4ca2d1"/>
      </g>
      <g transform="matrix(1, 0, 0, 1, 1830.51, -18755)" filter="url(#Path_48891)">
        <path id="Path_48891-2" data-name="Path 48891" d="M2.414,4.37A1.585,1.585,0,0,0,3.989,2.762V-16.657a1.578,1.578,0,0,0-1.575-1.575A1.585,1.585,0,0,0,.806-16.657V2.762A1.592,1.592,0,0,0,2.414,4.37Zm20.223-1.8V-16.721a1.585,1.585,0,0,0-1.575-1.608,1.612,1.612,0,0,0-1.608,1.608V-2.028L8.972-17.589a1.582,1.582,0,0,0-2.218-.482A1.648,1.648,0,0,0,6.014-16.5V2.826A1.606,1.606,0,0,0,7.622,4.4,1.578,1.578,0,0,0,9.2,2.826V-11.449L19.711,3.662a1.628,1.628,0,0,0,1.35.739,1.444,1.444,0,0,0,.868-.257A1.566,1.566,0,0,0,22.637,2.569Zm.932-19.162a1.585,1.585,0,0,0,1.608,1.575h4.855V2.762a1.592,1.592,0,1,0,3.183,0V-15.017H38.1a1.578,1.578,0,0,0,1.575-1.575A1.585,1.585,0,0,0,38.1-18.2H25.176A1.592,1.592,0,0,0,23.569-16.593ZM53.276,2.183,46.75-16.979a1.6,1.6,0,0,0-1.511-1.157,1.649,1.649,0,0,0-1.575,1.157L36.783,2.183A1.858,1.858,0,0,0,37.94,4.305h.354a1.474,1.474,0,0,0,1.543-1.157l1.35-3.279h7.845L50.19,3.148a1.893,1.893,0,0,0,2.122,1.157A1.593,1.593,0,0,0,53.276,2.183ZM42.345-3.379l2.894-8.231,2.829,8.231ZM64.594,4.338a11.106,11.106,0,0,0,9.42-5.208,1.417,1.417,0,0,0-.579-2.122,1.4,1.4,0,0,0-2.122.386,8.035,8.035,0,0,1-6.72,3.665,7.98,7.98,0,0,1-8.07-7.909,8.11,8.11,0,0,1,8.07-8.038,8.02,8.02,0,0,1,6.912,4.019,1.56,1.56,0,0,0,2.122.579,1.569,1.569,0,0,0,.579-2.315,10.869,10.869,0,0,0-9.613-5.562A11.34,11.34,0,0,0,53.244-6.851,11.335,11.335,0,0,0,64.594,4.338Zm9.677-20.93a1.585,1.585,0,0,0,1.608,1.575h4.855V2.762a1.592,1.592,0,1,0,3.183,0V-15.017H88.8a1.578,1.578,0,0,0,1.575-1.575A1.585,1.585,0,0,0,88.8-18.2H75.879A1.592,1.592,0,0,0,74.271-16.593Z" transform="translate(169.62 59.33)" fill="#ea5455"/>
      </g>
    </g>
  </g>
</svg>
